# Blender v2.79 (sub 0) OBJ File: ''
# www.blender.org
mtllib testobject.mtl
o Cube
v 100.000000 -100.000000 -99.999992
v 100.000000 -100.000000 100.000000
v -100.000015 -100.000000 99.999985
v -99.999962 -100.000000 -100.000038
v 100.000046 100.000000 -99.999947
v 99.999931 100.000000 100.000061
v -100.000038 100.000000 99.999962
v -99.999992 100.000000 -100.000000
v 88.969398 206.478577 -88.969307
v 88.969299 206.478577 88.969414
v -88.969391 206.478577 88.969330
v -88.969353 206.478577 -88.969360
v 115.256546 309.583038 -120.429657
v 116.080002 329.872284 56.346642
v -61.712284 337.089020 56.346558
v -62.535797 316.799774 -120.429703
v 102.583862 457.814850 -136.246033
v 100.981140 478.057434 40.530273
v -76.402512 464.014099 40.530190
v -74.799881 443.771515 -136.246078
v 19.822765 601.225769 -81.765602
v 19.502384 605.272217 -46.428406
v -15.956229 602.464966 -46.428417
v -15.635866 598.418518 -81.340042
v 3.013620 614.729919 -65.969170
vn 0.0000 -1.0000 -0.0000
vn -0.0000 0.1030 0.9947
vn 1.0000 0.0000 0.0000
vn -0.0000 -0.0000 1.0000
vn -1.0000 -0.0000 -0.0000
vn 0.0000 0.0000 -1.0000
vn 0.0050 0.2478 0.9688
vn 0.9947 0.1030 0.0000
vn -0.9947 0.1030 -0.0000
vn 0.0000 0.1030 -0.9947
vn -0.9945 -0.1044 0.0098
vn 0.9739 -0.2266 0.0107
vn -0.9766 0.2150 -0.0100
vn -0.0057 -0.2815 -0.9596
vn -0.0431 0.5448 0.8374
vn 0.0022 -0.1140 -0.9935
vn -0.0022 0.1140 0.9935
vn 0.9957 0.0924 -0.0084
vn -0.0791 0.9902 -0.1148
vn 0.8565 0.5137 -0.0511
vn -0.9266 0.3725 -0.0512
vn -0.0290 0.3424 -0.9391
vn -0.5722 -0.8154 0.0882
vn 0.0692 -0.8738 -0.4813
vn 0.6088 -0.7874 0.0968
vn 0.0655 -0.7230 0.6878
usemtl Material
s off
f 1//1 2//1 3//1 4//1
f 7//2 6//2 10//2 11//2
f 1//3 5//3 6//3 2//3
f 2//4 6//4 7//4 3//4
f 3//5 7//5 8//5 4//5
f 5//6 1//6 4//6 8//6
f 11//7 10//7 14//7 15//7
f 6//8 5//8 9//8 10//8
f 8//9 7//9 11//9 12//9
f 5//10 8//10 12//10 9//10
f 16//11 15//11 19//11 20//11
f 10//12 9//12 13//12 14//12
f 12//13 11//13 15//13 16//13
f 9//14 12//14 16//14 13//14
f 19//15 18//15 22//15 23//15
f 13//16 16//16 20//16 17//16
f 15//17 14//17 18//17 19//17
f 14//18 13//18 17//18 18//18
f 21//19 24//19 23//19 22//19
f 18//20 17//20 21//20 22//20
f 20//21 19//21 23//21 24//21
f 17//22 20//22 24//22 21//22
f 22//23 25//23 21//23
f 23//24 25//24 22//24
f 25//25 23//25 24//25
f 21//26 25//26 24//26
